<svg xmlns="http://www.w3.org/2000/svg" viewBox="0 0 113 173.1"><path d="M30.3 99.9c-.7-3.4-2.6-6.7.5-10.2.7-.7-.3-4.1-1.5-5.2-2.7-2.4-2.9-5.1.1-7 1-.6 1.5-2 1.9-3.3-4.6 2.3-9.1.9-10.9-3.9-.4-1 .1-3.1 1-3.9C27.1 61 33.2 55.6 39 50c1.3-1.3 2-3.3 3.2-5.5 2.8 3.2 5.6 6.3 7.9 9-5.3 6.9-15 11.1-16.4 22.6 11.4-10.6 21.9-20.5 33.5-31.3-3.8-3.7-7.3-6.9-10.6-10.3C49 27 41.5 19.5 34 11.9c-3-3.1-1.9-5.5 1.6-7.4C42.5.7 49.7.9 57 2.7c10.4 2.6 19.4 7.9 27.5 14.6 1.7 1.4 3.3 2.8 5.1 4.4 1.8-1.2 3.4-2.3 5.1-3.4l.6.6c-1.1 1.5-2.1 3.1-3.5 5 1.4 1.7 2.9 3.4 4.4 5.2 7.6 9.3 13.5 19.4 15.4 31.5 1 6.4.4 12.6-3.1 18.3-1.7 2.7-3.8 3.4-6.1 1.2-8.2-8-16.2-16.2-24.4-24.4-2.8-2.8-5.7-5.6-9.3-9.1-10 10.7-19.4 20.9-28.9 31.1-1.2 2.3.7 6.4-4.3 7.7-.5.1-.9 3.8 0 4.9 2.6 3.3 2 6.4.6 9.8l.2.2v-5.8h-6.5c.1 2.2.2 4 .4 5.8l.1-.4zM37.1 124c-1.5 10.1 1.9 18.1 9.7 24.7 6 5.2 11.5 11.1 16.9 16.9 1.2 1.3 1.3 3.8 1.9 5.8-1.8-.6-3.7-1-5.5-1.8-1-.5-1.9-1.4-2.5-2.4-4.2-6.9-10.8-6-17.3-5.6-1 .1-2.1 1.2-3 2.1-2.8 2.8-5.7 2.5-8.4.2-3.7-3.3-12.9-3.6-16.5-.2-2.3 2.2-4.3 4.7-6.8 6.6-1.2.9-3.1.8-4.8 1.2.3-1.7 0-4 1-5.1 6.3-6.7 12.7-13.2 19.4-19.5 5.4-5.1 8.3-11 7.8-18.5-.1-1.5.1-3 .1-4.5l-.2.1h8.2zm-8.9 28.4c3.1-.1 6.2-.3 9.3-.4.4 2.3.7 4 .9 5.6h9.8c-3.8-3.4-6.5-5.8-10.1-9-.4-7.5-.6-7.7-9.9-5.8v9.7c-2.8-2.7-6.2-.5-8.2 5.1h8.1c.1-1.9.1-3.6.1-5.2z"/><path d="M29.3 124c-.4-3.3-1.2-6.6-1-9.9.3-4.8 1.3-9.5 2-14.2l-.2.2h6.1l-.2-.2c.7 6.5 1.4 13.1 1.9 19.6.1 1.5-.6 3-.9 4.5l.2.1c-.1-2.4-.2-4.8-.4-7.3-1.6-.1-2.7-.3-3.9-.2-1.2 0-2.5.2-3.9.3v7.2l.3-.1z"/></svg>