<svg xmlns="http://www.w3.org/2000/svg" viewBox="0 0 170.9 120.6"><path d="M122.9 5c5.8-3.1 14.7-.9 17.8 5 2.4 4.6 3.7 9.9 5.7 15.4 2.2-.3 3.5 1 3.7 4.1.2 2.9 1.9 4.7 4.4 6.6 3.1 2.2 5.6 5.7 7.5 9.1 2.2 4 3.7 8.6 5.1 13 .8 2.3 1.7 5 1.2 7.3-1.5 8.3-3.4 16.6-5.6 24.8-.4 1.5-2.7 2.7-4.4 3.6-4.4 2.4-9.2 4-13.2 6.8-7.5 5.1-15.9 7.5-24.6 9.1-3.3.6-6.6.9-9.8 1.7-2.5.7-4.7 2.6-7.1 2.9-5 .6-10.1 2.5-15.1-.8-1.7-1.1-4.5-.6-6.8-.5-2 0-4.1.9-5.9.5-8.6-1.7-16.6.3-24.5 3.2-11.8 4.3-22.9 2.6-33.7-3.1-3.1-1.7-5.9-3.7-7.5-7.1-.7-1.4-2.1-2.5-3.2-3.8-3.4-3.8-5.3-8.1-4.7-13.2.5-4.3 1.2-8.5 1.9-13.4 1.9 2.5 3.4 4.7 5 6.6 1.8 2 3.7 3.8 5.7 5.6.7.7 1.5 1.3 2.4 1.8 8.1 4 16.1 7.9 24.3 11.7 2.4 1.1 5 1.8 7.6 2.4 8.1 1.8 16.2 3.5 24.4 5.3.8.2 1.8.3 2.4 0 8.4-4.8 18.1-4.9 27-7.9.1 0 .2-.2.5-.7-25.1-1.4-50.1-1.9-75.2-7.1-.6-6.4-1.3-12.5-1.9-18.7-6-1.1-5.7 6.2-10.5 7.5-1.2-1-2.9-2.1-4.2-3.5-3.2-3.3-3.3-4.8-1.2-8.9.7-1.3 1.4-2.6 2-4 1.4-2.9 3.5-4.7 6.6-5.5 2.5-.6 5-1.5 8-2.4V32.9h.9v17.9c2-4.3-1.8-9.5 3.8-11.6-1.1-2.6-2.1-4.9-3.5-8.1 36.3 1.7 71.5 3.3 107.4 5 .2 1.5.4 3.2.7 5.6-17.1.9-33.9 0-50.6-.9-16.6-.8-33.2-2-49.8-3-.8 3.2.9 3.6 3.2 3.8 8.5.6 16.9 1.5 25.4 1.9 19.8.9 39.6 1.6 59.4 2.3 4.1.1 8.3 0 13.1 0 1.3 7.8 2.8 16.2 4.2 24.7.2 0 .4-.1.6-.1-.3-2.3-.7-4.7-1-7-1.6-11.7-3.1-23.4-4.9-35.1-1.5-10.1-6.5-14.1-16.6-14.2-19.7-.3-39.3-.8-59-1.1-7.2-.1-14.3 0-21.6 0C44.9 5.8 53 2.7 63.4 3.4 59.9 4 56 4.9 52.1 5.8c.1.3.1.6.2.8 5.5-.7 11.1-1.5 16.7-2.3 2.9-.4 5.6-.8 8.5-2 3-1.3 7-.4 10.5-.1 2.2.2 4.4 1.3 6.6 1.4 9.5.6 18.9.9 28.4 1.3 6.5 1.7 12.1 5.4 13.7 11.7 1.3 4.8 4.5 8.5 5.9 13.4.8-1.2 1.5-2.5 1.2-3.6-2.3-7.6-5.9-14.4-12.6-19-2.5-1.7-5-3.4-8.3-2.4zm28.4 64.7c-.6 9.1-4.9 16.9-7.8 25.5 2-.3 3.5-.4 4.9-.8 4.7-1.3 8.8-6.7 7.7-10.7-1.3-4.7-3.2-9.3-4.8-14zM83.9 7.5c3 0 4.8.1 6.6 0 6.7-.3 13.3-.6 20-.9 7.4-.4 14.2 1.1 20.1 6 0 0 .4-.3.7-.6-3.6-3.6-7.9-5.5-12.8-6.3-10.8-1.7-21.6.1-32.4.3-.4-.1-.7.4-2.2 1.5zm46.7 41.8c-1.9.9-3.6 1.7-5.1 2.4-2.9-4.4-7.6-.1-11.6-1 .4 1.1 1.1 2.4 1.8 2.5 1.7.2 3.5-.2 5.2-.4.8-.1 1.6-.4 2.3-.3 2.9.4 5.8 1 9.6 1.7-.9-2.2-1.4-3.1-2.2-4.9zm-17.1 1.6c-.3-.3-.6-.6-.8-1-1.1.8-2.2 1.7-3.5 2.7-.2-3.6-3.2-2.2-5.1-2.7-.4-.1-1.4 1.1-1.7 1.9-.1.3.9 1.5 1.5 1.5 2.2.2 4.5.3 6.7-.1 1-.1 1.9-1.5 2.9-2.3z"/><path d="M135 32c-34.8-1.5-69.7-3-104.4-4.6-1.3-7.7 1.5-12.3 8.5-13 6.3-.6 12.6-.6 18.9-.5 19.6.4 39.3 1 58.9 1.5h3.5c10 .2 14.9 5.6 14.6 16.6z"/></svg>