<svg xmlns="http://www.w3.org/2000/svg" viewBox="0 0 118.4 152.6"><path d="M59.5 2.4H100c9.6 0 15.3 4.4 16.2 13.9.8 7.9.3 15.9-.1 23.8-.3 5.6-3.9 9.2-9 11.7-1.6.8-3.3 2.8-3.5 4.5-3.5 20.3-6.7 40.7-9.8 61.1-.2 1.6 1.2 3.5 1.8 5.3 1 2.4 3.2 5.2 2.6 7.2-.6 2-3.8 4.4-6 4.5-8.5.6-17 .3-25.5.3h-38c-3.6 0-6.8-.7-7.9-4.6-1-3.5.6-6 3.7-7.9.9-.5 1.4-2.4 1.3-3.6-3.3-21-6.6-42.1-10.1-63.1-.2-1.4-1.8-3-3.2-3.6-5.1-2.3-8.2-5.9-9.3-11.5-1.8-8.8-1.9-17.5.2-26.2C5.2 6.8 10.4 2.5 18 2.4c13.8-.1 27.7 0 41.5 0zm.5 6.9H19c-6.1 0-8.8 1.9-9.4 8C9 24 9 30.8 9.6 37.5c.6 6.5 3.5 8.6 10 8.6h78.9c8 0 10.4-1.6 11.3-9.3.7-6.2.6-12.6 0-18.8-.8-7.1-3.2-8.7-10.2-8.7-13.3-.1-26.5-.1-39.6 0zm27.5 57.8H31.8c2 12.9 3.9 25.4 6.1 37.8.2 1.1 2.1 2.6 3.3 2.6 12.3.2 24.6.2 37 0 1.2 0 3.1-1.5 3.3-2.5 2.1-12.4 3.9-24.9 6-37.9zM79.7 137v5.3H40.3V137h39.4zM76.7 150.2H43.4c4.2-7.4 10.7-5.8 16.7-5.8 5.8 0 12.2-1.6 16.6 5.8z"/></svg>