<svg xmlns="http://www.w3.org/2000/svg" viewBox="0 0 101 149.8"><path d="M1.8 32.5h97.3v58.6H1.8V32.5zm71.7 11.4c-2.9 11.6-3 23.3 0 34.9 3-11.6 3-23.3 0-34.9zm-55 .5c-3 11.5-3.1 23 0 34.5 2.8-11.6 2.9-23 0-34.5zm8.9-1c-3.1 13.8-2.7 30.5.6 35 2.7-10.6 2.6-26-.6-35zm37 35.3c2.7-11.5 2.9-23.1 0-34.6-3 11.4-3.1 23 0 34.6zm-19.7-.2h1.9c2.2-11.4 2.4-22.7-.2-34h-1.7v34zm38-34c-3.3 11.8-2.9 29.3.6 34.2 2.2-11.6 2.5-22.9-.6-34.2zm9.1-.1c-2.7 11.4-2.8 22.8.1 34.2 2.8-11.4 3-22.8-.1-34.2zM35.6 78.6h1.7c2.4-11.4 2.6-22.8-.1-34.2h-1.6v34.2zm20.8-34c-.5 0-.9.1-1.4.1-3.2 8.4-2.9 29.1 1.4 35V44.6zM8.8 78.5c.6.1 1.1.1 1.7.2V44H8.8c-2.4 11.5-2.6 23 0 34.5zM96.1 113.4v20.8H5.2v-20.8h44c.2 3.9.4 7.6.6 11.3h1.3c.2-3.7.3-7.3.5-11.3h44.5zM99.2 95.5v13.7H1.9V95.5h97.3zM2.1 30.1c-.4-5.7 2.3-8.9 7.4-8.9h81.8c5.1 0 7.6 2.8 7.8 8.9h-97zM95.7 9.7c1.3 4.7-1.8 3.9-3.9 3.9H31.3c-7.7 0-15.3.1-23-.1-1.1 0-2.3-1.1-3.4-1.7 1-.7 2-2 3-2 29.2-.1 58.4-.1 87.8-.1zM93.5 140.6H66.9c-18.5 0-37 0-55.5-.1-1.4 0-2.9-1.2-4.3-1.8 1.5-.8 2.9-2.2 4.4-2.2 26.2-.1 52.3-.1 78.5-.1 2.4 0 5-.2 3.5 4.2zM14.5 143h71.7c1.1 3.9 1.1 4.1-2.3 4.1-22.3.1-44.5 0-66.8 0-3.2 0-3.6-1.4-2.6-4.1zM17.4 7.7c22-6.6 44.2-6.7 66.3 0H17.4zM2.9 17.2c8-1.1 16-3.2 23.7 1.1.9.5 2.3.4 3.4.4 11.6 0 23.2.2 34.9-.1 2.5-.1 5-1.6 7.6-2.2-.7.3-1.5.5-2.2.8 0 .4 0 .7.1 1.1h26.7v1.1H22.4c-6.4 0-12.9-.4-19.3-.6h14.8v-2.2c-5.1.1-10 .4-15 .6zM96.9 16.6H77.7v-.4h19.5c-.1.1-.2.3-.3.4z"/></svg>