<svg xmlns="http://www.w3.org/2000/svg" id="login" width="64" height="64"><path d="M42.286 32q0 .929-.679 1.607L22.178 53.036q-.679.679-1.607.679t-1.607-.679-.679-1.607V41.143h-16q-.929 0-1.607-.679t-.679-1.607V25.143q0-.929.679-1.607t1.607-.679h16V12.571q0-.929.679-1.607t1.607-.679 1.607.679l19.429 19.429q.679.679.679 1.607zm12.571-12.571v25.143q0 4.25-3.018 7.268t-7.268 3.018H33.142q-.464 0-.804-.339t-.339-.804q0-.143-.036-.714t-.018-.946.107-.839.357-.696.732-.232H44.57q2.357 0 4.036-1.679t1.679-4.036V19.43q0-2.357-1.679-4.036t-4.036-1.679H33.427l-.411-.036-.411-.107-.286-.196-.25-.321-.071-.482q0-.143-.036-.714t-.018-.946.107-.839.357-.696.732-.232h11.429q4.25 0 7.268 3.018t3.018 7.268z"/></svg>