<svg xmlns="http://www.w3.org/2000/svg" viewBox="0 0 118.4 157"><path d="M51.8 3.3c13.5 0 27-.2 40.5.1 2.5.1 5.4 1.4 7.3 3.1 5.4 4.9 12.4 9.5 14.9 15.8 2.6 6.6.9 15.1.8 22.7 0 1.7-1.9 3.3-2.2 5-.4 2.2-.4 4.7 0 6.9.3 1.8 2.2 3.4 2.2 5.2.1 27.6.1 55.3.1 82.9 0 7.1-1.5 8.6-8.4 8.6-10.2 0-20.3.2-30.5-.1-10.2-.3-20.3-1.5-30.5-1.5-11.8 0-23.6 1.2-35.5 1.6-6.5.2-7.8-1.3-7.8-7.9 0-23.3 0-46.6.2-69.9 0-1.5 1.5-3 2.3-4.5.5-.9 1.2-1.9 1.2-2.9.1-8.5.1-17 0-25.5 0-.8 0-2.2-.4-2.4-5.7-1.9-3-6.6-3.2-10-.3-6.5 0-13 0-19.5.1-5.9 1.5-7.4 7.5-7.5 13.8-.1 27.6 0 41.5 0v-.2zM98 44H19.5v92.9H98V44zM63.4 7.8v9c0 8.5 0 8.5 8.4 7.8.3 0 .6-.3 1.1-.6V7.8h-9.5zm-14 .1c0 4.4.3 8.3-.1 12-.4 4.1 1.3 5.5 5.1 4.9 1.3-.2 2.6-.2 4.2-.3V7.9h-9.2zm37.8.2h-9.1v16.4h9.1V8.1zM30.3 8h-8.8v16.4h8.8V8zm14.1 16.6V8h-8.9v16.6h8.9z"/><path d="M4.4 42.1v10h-1v-10h1z"/></svg>