<svg xmlns="http://www.w3.org/2000/svg" width="50" height="64"><path d="M50.286 44.286q0 .964-.357 2.518t-.75 2.446q-.75 1.786-4.357 3.786-3.357 1.821-6.643 1.821-.964 0-1.893-.125t-2.054-.446-1.679-.518-1.982-.732-1.75-.643q-3.5-1.25-6.25-2.964-4.536-2.821-9.429-7.714t-7.714-9.429q-1.714-2.75-2.964-6.25-.107-.321-.643-1.75t-.732-1.982-.518-1.679-.446-2.054T0 16.678q0-3.286 1.821-6.643 2-3.607 3.786-4.357.893-.393 2.446-.75t2.518-.357q.5 0 .75.107.643.214 1.893 2.714.393.679 1.071 1.929t1.25 2.268 1.107 1.911q.107.143.625.893t.768 1.268.25 1.018q0 .714-1.018 1.786t-2.214 1.964-2.214 1.893-1.018 1.643q0 .321.179.804t.304.732.5.857.411.679q2.714 4.893 6.214 8.393t8.393 6.214q.071.036.679.411t.857.5.732.304.804.179q.643 0 1.643-1.018t1.893-2.214 1.964-2.214 1.786-1.018q.5 0 1.018.25t1.268.768.893.625q.893.536 1.911 1.107t2.268 1.25 1.929 1.071q2.5 1.25 2.714 1.893.107.25.107.75z"/></svg>