<svg xmlns="http://www.w3.org/2000/svg" viewBox="0 0 161 122.3"><path d="M49.2 120.9c.6-5 1.6-9.3 1.6-13.7.1-25.5 0-51-.1-76.4 0-4-1-8.1-1.5-12.5.2 0 1.1-.3 2-.2 5.8.2 11 .8 13.6-6.9 1.6-5 7.2-7 13.1-6.9.2 2.3.4 4.4.6 6.8h33.7c.2-2.1.4-4.2.6-6.2 6.5-.8 12.4 2.6 14.8 9 1.2 3.1 2.1 3.8 5.9 3.4 6.5-.6 13.2.3 19.7 1.3 4 .6 6 4 6.1 8.1 0 28.3.1 56.6 0 84.9 0 5.8-3.3 9.2-9 9.2-34 .1-67.8.1-101.1.1zm6.7-44.5c-.1 20.9 16.7 37.8 37.6 37.9 20.9.1 37.9-16.6 38.1-37.5.2-21.1-16.8-38.2-37.9-38.2-20.9.1-37.7 16.9-37.8 37.8zm39.4-42.2c3.7 0 7.3.1 11 0 7-.1 11.7-4.4 12-10.7.2-6.1-4.5-11.2-11.3-11.5-7.8-.4-15.6-.4-23.4 0-6.6.3-11.1 5.4-11 11.3.1 6.3 4.9 10.8 11.8 10.9h10.9zM45.4 28c.3 1.6 1 3.1 1 4.7.1 25.5.1 50.9 0 76.4 0 8.7-3 11.7-11.7 11.8H12.2c-7.1-.1-10.4-3.2-10.5-10.4-.1-26.9 0-53.9 0-82 7.3 10 15.7 16.2 27.7 13.1 7.4-1.9 13.1-6.3 16-13.7v.1z"/><path d="M45.6 27.9c-1.4 1.4-2.8 2.7-4.1 4.1C30.2 44.4 11 42 3.1 27.2c-1.8-3.4.4-7.2 5.2-8.9 5.7-1.9 6.1-2.7 3.7-8.7 2-.2 3.9-.5 5.7-.6 4-.1 8 .2 12-.1 4.8-.4 8.4 0 7.4 6.4-.1.9 1.7 2.5 2.9 3.1 4.2 2 6.7 4.7 5.4 9.7 0-.1.2-.2.2-.2zm-5.2-3.1H7.7c4.2 6.8 8.9 11 16 11.2 7.3.1 12.3-4.1 16.7-11.2zm-4.3-12.7c-5.9 0-11.9-.1-17.8.1-1.4.1-2.7 1.4-4.1 2.1 1.3.7 2.6 1.9 4 1.9 5 .2 10-.2 14.9.2 3.7.4 3.9-1.2 3-4.3zM111 9.7H79.8c.3-2.4.3-4.7 1.1-6.7.9-2.3 3.5-2.1 4.9 0 .5.7 1.7 1.1 2.6 1.1 4.5.1 8.9.2 13.4 0 1.4-.1 4.3 1.6 3.5-2.2 1.6.4 4.1.3 4.7 1.3 1 1.6.7 4 1 6.5zM60.4 76.2c.1-18.6 15.1-33.2 34-33.1 18 .1 32.8 15.3 32.7 33.5 0 18.6-15.1 33.5-33.9 33.3-18.3-.1-32.9-15.1-32.8-33.7zm2.9.4c0 16.7 13.9 30.6 30.6 30.4 16.5-.1 30.2-13.8 30.3-30.3.1-16.6-13.8-30.7-30.5-30.7-16.6 0-30.4 13.8-30.4 30.6z"/><path d="M93.7 63.6c-3.9-.6-6.3-2.5-6.3-6.6 0-3.8 3-6.7 6.8-6.3 3.9.4 6.1 2.8 5.9 6.7-.2 4-2.7 5.8-6.4 6.2z"/></svg>