<svg data-name="Слой 1" xmlns="http://www.w3.org/2000/svg" viewBox="0 0 59.43 59.43"><path d="M41.15 25.15a15.42 15.42 0 0 0-4.7-11.31 15.41 15.41 0 0 0-11.3-4.69 15.41 15.41 0 0 0-11.31 4.69 15.41 15.41 0 0 0-4.69 11.31 15.41 15.41 0 0 0 4.69 11.3 15.42 15.42 0 0 0 11.31 4.7 15.41 15.41 0 0 0 11.3-4.7 15.41 15.41 0 0 0 4.7-11.3zm18.28 29.71a4.61 4.61 0 0 1-4.57 4.57 4.24 4.24 0 0 1-3.21-1.35L39.4 45.86a24.47 24.47 0 0 1-14.25 4.43 24.73 24.73 0 0 1-9.77-2A24.6 24.6 0 0 1 1.99 34.92a25 25 0 0 1 0-19.54A24.52 24.52 0 0 1 15.38 1.99a25 25 0 0 1 19.54 0 24.6 24.6 0 0 1 13.39 13.39 24.73 24.73 0 0 1 2 9.77 24.47 24.47 0 0 1-4.43 14.25l12.23 12.25a4.37 4.37 0 0 1 1.32 3.21z"/></svg>