<svg xmlns="http://www.w3.org/2000/svg" width="59" height="64"><path d="M22.857 54.857q0 1.857-1.357 3.214t-3.214 1.357-3.214-1.357-1.357-3.214 1.357-3.214 3.214-1.357 3.214 1.357 1.357 3.214zm32 0q0 1.857-1.357 3.214t-3.214 1.357-3.214-1.357-1.357-3.214 1.357-3.214 3.214-1.357 3.214 1.357 1.357 3.214zM59.429 16v18.286q0 .857-.589 1.518t-1.446.768l-37.286 4.357q.464 2.143.464 2.5 0 .571-.857 2.286h32.857q.929 0 1.607.679t.679 1.607-.679 1.607-1.607.679H16.001q-.929 0-1.607-.679t-.679-1.607q0-.393.286-1.125t.571-1.286.768-1.429.554-1.054L9.573 13.714H2.287q-.929 0-1.607-.679t-.679-1.607.679-1.607 1.607-.679h9.143q.571 0 1.018.232t.696.554.464.875.286.929.196 1.054.161.929h42.893q.929 0 1.607.679t.679 1.607z"/></svg>