<svg xmlns="http://www.w3.org/2000/svg" id="vk" width="69" height="64"><path d="M68.464 18.571q.821 2.286-5.357 10.5-.857 1.143-2.321 3.036-1.429 1.821-1.964 2.571t-1.089 1.768-.429 1.5.464 1.232 1.161 1.536 2.036 1.893q.143.071.179.143 5.036 4.679 6.821 7.893.107.179.232.446t.25.946-.018 1.214-.893.982-2.107.446l-9.143.143q-.857.179-2-.179t-1.857-.786l-.714-.429q-1.071-.75-2.5-2.286t-2.446-2.768-2.179-2.071-2.018-.554q-.107.036-.286.125t-.607.518-.768 1.054-.607 1.857-.232 2.768q0 .536-.125.982t-.268.661l-.143.179q-.643.679-1.893.786h-4.107q-2.536.143-5.214-.589t-4.696-1.893-3.679-2.357-2.518-2.054l-.893-.857q-.357-.357-.982-1.071T13 42.606t-3.786-5.393-4.375-7.536-4.661-9.714q-.214-.571-.214-.964t.107-.571l.143-.214q.536-.679 2.036-.679l9.786-.071q.429.071.821.232t.571.304l.179.107q.571.393.857 1.143.714 1.786 1.643 3.696t1.464 2.911l.571 1.036q1.036 2.143 2 3.714t1.732 2.446 1.482 1.375 1.214.5.964-.179q.071-.036.179-.179t.429-.786.482-1.679.339-2.893 0-4.464q-.071-1.429-.321-2.607t-.5-1.643l-.214-.429q-.893-1.214-3.036-1.536-.464-.071.179-.857.571-.679 1.357-1.071 1.893-.929 8.536-.857 2.929.036 4.821.464.714.179 1.196.482t.732.857.375 1.143.125 1.625-.036 1.964-.089 2.518-.054 2.946q0 .393-.036 1.5t-.018 1.714.125 1.446.411 1.393.804.875q.286.071.607.143t.929-.393 1.357-1.232T46.07 30.8t2.429-3.839q2.143-3.714 3.821-8.036.143-.357.357-.625t.393-.375l.143-.107.179-.089.464-.107.714-.018 10.286-.071q1.393-.179 2.286.089t1.107.589z"/></svg>